
            <svg
              xmlns="http://www.w3.org/2000/svg"
              width="99"
              height="48"
              viewBox="0 0 99 48"
              fill="none"
              class="logo__svg_white"
            >
              <path
                fill-rule="evenodd"
                clip-rule="evenodd"
                d="M22.044 0L27.9226 3.1915H22.044H16.1655L22.044 0ZM12.4246 5.36171L21.9104 10.5958L31.3963 5.36171L43.0197 11.617L22.044 23.2341L1.06836 11.617L12.4246 5.36171Z"
                fill="white"
              />
              <path
                fill-rule="evenodd"
                clip-rule="evenodd"
                d="M43.9557 36.3831L38.0771 39.5746L41.0164 34.7235L43.9557 29.8724V36.3831ZM43.8221 25.7873L34.3362 31.0214V41.4895L22.98 47.8725V24.766L43.9557 13.149L43.8221 25.7873Z"
                fill="white"
              />
              <path
                fill-rule="evenodd"
                clip-rule="evenodd"
                d="M0 36.3829V29.8723L2.93927 34.7233L5.87854 39.5744L0 36.3829ZM9.61942 41.617V31.1489L0.133604 25.9148V13.2765L21.1093 24.8935V48L9.61942 41.617Z"
                fill="white"
              />
              <path
                d="M58.652 24.6386H52.7734V5.36194H58.652V13.4045L64.5305 5.36194H70.409L63.4617 14.8088L71.2107 24.7662H64.3969L58.5184 16.7237V24.6386H58.652ZM93.2552 9.57471V24.6386H87.3766V9.57471H81.4981V5.36194H99.0001V9.70237H93.2552V9.57471ZM78.9596 24.6386H73.0811V5.36194H78.9596C78.9596 11.7449 78.9596 18.2556 78.9596 24.6386Z"
                fill="white"
              />
              <path
                d="M52.7735 34.8512V28.7235H54.9111C55.5792 28.7235 56.1136 28.8512 56.5144 29.1065C56.9152 29.3618 57.0488 29.7448 57.0488 30.3831C57.0488 30.6384 56.9152 30.8938 56.7816 31.1491C56.648 31.4044 56.3808 31.5321 56.1136 31.6597C56.5144 31.7874 56.7816 31.915 56.9152 32.1704C57.1824 32.4257 57.1824 32.681 57.1824 33.064C57.1824 33.5746 57.0488 34.0853 56.648 34.3406C56.2472 34.5959 55.7128 34.8512 55.0447 34.8512H52.7735ZM56.3808 41.1065H53.7087L53.0407 42.7661H52.1055L54.5103 36.6385H55.3119L57.7168 42.7661H56.7816L56.3808 41.1065ZM53.8423 40.4682H55.98L55.0447 37.5321L53.8423 40.4682ZM61.3241 41.4895C61.3241 41.2342 61.1905 41.1065 61.0569 40.9789C60.9233 40.8512 60.6561 40.7236 60.1217 40.7236C59.7208 40.5959 59.32 40.5959 59.1864 40.4682C58.9192 40.3406 58.7856 40.2129 58.652 40.0853C58.5184 39.9576 58.5184 39.7023 58.5184 39.447C58.5184 39.064 58.652 38.8087 59.0528 38.5534C59.32 38.298 59.8544 38.1704 60.3889 38.1704C60.9233 38.1704 61.3241 38.298 61.7249 38.5534C62.1257 38.8087 62.2593 39.1917 62.2593 39.5746H61.4577C61.4577 39.3193 61.3241 39.1917 61.1905 39.064C61.0569 38.9363 60.7897 38.8087 60.5225 38.8087C60.2553 38.8087 59.988 38.8087 59.8544 38.9363C59.7208 39.064 59.5872 39.1917 59.5872 39.447C59.5872 39.5746 59.7208 39.8299 59.8544 39.8299C59.988 39.9576 60.2553 39.9576 60.6561 40.0853C61.0569 40.2129 61.4577 40.3406 61.5913 40.3406C61.8585 40.4683 61.9921 40.5959 62.1257 40.7236C62.2593 40.8512 62.2593 41.1065 62.2593 41.3619C62.2593 41.7448 62.1257 42.1278 61.7249 42.3831C61.3241 42.6385 60.9233 42.7661 60.3889 42.7661C59.988 42.7661 59.7208 42.6385 59.32 42.5108C59.0528 42.3831 58.7856 42.2555 58.652 42.0002C58.5184 41.7448 58.3848 41.4895 58.3848 41.2342H59.1864C59.1864 41.4895 59.32 41.7449 59.4536 41.8725C59.7208 42.0002 59.9881 42.1278 60.2553 42.1278C60.5225 42.1278 60.7897 42.1278 61.0569 42.0002C61.3241 41.8725 61.3241 41.7449 61.3241 41.4895ZM66.0002 41.4895C66.0002 41.2342 65.8666 41.1065 65.733 40.9789C65.5994 40.8512 65.3322 40.7236 64.7978 40.7236C64.397 40.5959 63.9961 40.5959 63.8625 40.4682C63.5953 40.3406 63.4617 40.2129 63.3281 40.0853C63.1945 39.9576 63.1945 39.7023 63.1945 39.447C63.1945 39.064 63.3281 38.8087 63.7289 38.5534C63.9961 38.298 64.5306 38.1704 65.065 38.1704C65.5994 38.1704 66.0002 38.298 66.401 38.5534C66.8018 38.8087 66.9354 39.1917 66.9354 39.5746H66.1338C66.1338 39.3193 66.0002 39.1917 65.8666 39.064C65.733 38.9363 65.4658 38.8087 65.1986 38.8087C64.9314 38.8087 64.6642 38.8087 64.5306 38.9363C64.3969 39.064 64.2633 39.1917 64.2633 39.447C64.2633 39.5746 64.3969 39.8299 64.5306 39.8299C64.6642 39.9576 64.9314 39.9576 65.3322 40.0853C65.733 40.2129 66.1338 40.3406 66.2674 40.3406C66.5346 40.4683 66.6682 40.5959 66.8018 40.7236C66.9354 40.8512 66.9354 41.1065 66.9354 41.3619C66.9354 41.7448 66.8018 42.1278 66.401 42.3831C66.0002 42.6385 65.5994 42.7661 65.065 42.7661C64.6642 42.7661 64.3969 42.6385 63.9961 42.5108C63.7289 42.3831 63.4617 42.2555 63.3281 42.0002C63.0609 41.8725 63.0609 41.6172 63.0609 41.3619H63.8625C63.8625 41.6172 63.9961 41.8725 64.1297 42.0002C64.397 42.1278 64.6642 42.2555 64.9314 42.2555C65.1986 42.2555 65.4658 42.2555 65.733 42.1278C65.8666 41.8725 66.0002 41.7449 66.0002 41.4895ZM67.737 40.4682C67.737 39.9576 67.8706 39.5746 68.0042 39.3193C68.1378 38.9363 68.405 38.681 68.8059 38.5534C69.0731 38.298 69.4739 38.298 69.8747 38.298C70.5427 38.298 71.0771 38.5534 71.4779 38.9363C71.8787 39.3193 72.1459 39.9576 72.1459 40.5959C72.1459 40.9789 72.0123 41.4895 71.8787 41.7448C71.7451 42.1278 71.4779 42.3831 71.0771 42.5108C70.8099 42.7661 70.4091 42.7661 69.8747 42.7661C69.2067 42.7661 68.6723 42.5108 68.2714 42.1278C67.8706 41.7449 67.737 41.2342 67.737 40.4682ZM68.5386 40.4682C68.5386 40.9789 68.6723 41.3619 68.9395 41.7448C69.2067 42.0002 69.4739 42.2555 69.8747 42.2555C70.2755 42.2555 70.6763 42.1278 70.8099 41.7448C71.0771 41.4895 71.2107 40.9789 71.2107 40.4682C71.2107 39.9576 71.0771 39.5746 70.8099 39.1917C70.5427 38.9363 70.2755 38.681 69.8747 38.681C69.4739 38.681 69.2067 38.8087 68.9395 39.1917C68.6723 39.447 68.5386 39.9576 68.5386 40.4682ZM74.9516 42.1278C75.2188 42.1278 75.486 42.0002 75.7532 41.8725C76.0204 41.7449 76.154 41.4895 76.154 41.2342H76.9556C76.9556 41.4895 76.822 41.7448 76.6884 42.0002C76.5548 42.2555 76.2876 42.3831 76.0204 42.5108C75.7532 42.6385 75.486 42.7661 75.0852 42.7661C74.4172 42.7661 73.8828 42.5108 73.482 42.1278C73.0812 41.7449 72.9475 41.1065 72.9475 40.4682V40.3406C72.9475 39.9576 73.0811 39.447 73.2148 39.1917C73.3484 38.8087 73.6156 38.5534 74.0164 38.4257C74.2836 38.1704 74.6844 38.1704 75.0852 38.1704C75.6196 38.1704 76.0204 38.298 76.4212 38.681C76.822 38.9363 76.9556 39.447 76.9556 39.8299H76.154C76.154 39.5746 76.0204 39.3193 75.7532 39.064C75.486 38.9363 75.2188 38.8087 74.9516 38.8087C74.5508 38.8087 74.15 38.9363 74.0164 39.1917C73.7492 39.447 73.6156 39.8299 73.6156 40.4682V40.5959C73.6156 41.1066 73.7492 41.4895 74.0164 41.8725C74.2836 42.0002 74.5508 42.1278 74.9516 42.1278ZM78.6925 42.7661H77.8909V38.1704H78.6925V42.7661ZM77.7573 37.0214C77.7573 36.8938 77.7573 36.7661 77.8909 36.6385C78.0245 36.5108 78.1581 36.5108 78.2917 36.5108C78.4253 36.5108 78.5589 36.5108 78.6925 36.6385C78.8261 36.7661 78.8261 36.8938 78.8261 37.0214C78.8261 37.1491 78.8261 37.2768 78.6925 37.2768C78.5589 37.4044 78.4253 37.4044 78.2917 37.4044C78.1581 37.4044 78.0245 37.4044 77.8909 37.2768C77.8909 37.1491 77.7573 37.1491 77.7573 37.0214ZM82.9678 42.7661C82.9678 42.6385 82.8342 42.5108 82.8342 42.2555C82.4334 42.6385 82.0326 42.7661 81.4981 42.7661C80.9637 42.7661 80.6965 42.6385 80.2957 42.3831C80.0285 42.1278 79.8949 41.7448 79.8949 41.3619C79.8949 40.8512 80.0285 40.4683 80.4293 40.2129C80.8301 39.9576 81.3645 39.8299 82.0325 39.8299H82.8342V39.447C82.8342 39.1917 82.7006 38.9363 82.567 38.8087C82.4334 38.681 82.1662 38.5534 81.7653 38.5534C81.4981 38.5534 81.2309 38.681 81.0973 38.8087C80.9637 38.9363 80.8301 39.064 80.8301 39.3193H80.0285C80.0285 39.064 80.1621 38.8087 80.2957 38.681C80.4293 38.4257 80.6965 38.298 80.9637 38.1704C81.2309 38.0427 81.6317 38.0427 81.8989 38.0427C82.4334 38.0427 82.8342 38.1704 83.235 38.4257C83.5022 38.681 83.7694 39.064 83.7694 39.5746V41.6172C83.7694 42.0002 83.7694 42.3831 83.903 42.6385V42.7661H82.9678ZM81.6317 42.1278C81.899 42.1278 82.1662 42.1278 82.2998 41.8725C82.567 41.7449 82.7006 41.6172 82.8342 41.3619V40.4682H82.1662C81.2309 40.4682 80.6965 40.7236 80.6965 41.3619C80.6965 41.6172 80.8301 41.7448 80.9637 42.0002C81.0973 42.1278 81.3645 42.1278 81.6317 42.1278ZM86.0406 37.0214V38.1704H86.9759V38.8087H86.0406V41.6172C86.0406 41.7448 86.0406 42.0002 86.1743 42.0002C86.3079 42.1278 86.4415 42.1278 86.5751 42.1278C86.7087 42.1278 86.8423 42.1278 86.9759 42.1278V42.7661C86.7087 42.7661 86.5751 42.8938 86.3079 42.8938C85.907 42.8938 85.6398 42.7661 85.5062 42.6385C85.3726 42.3831 85.239 42.1278 85.239 41.7448V38.9363H84.3038V38.298H85.239V37.1491H86.0406V37.0214ZM88.7127 42.7661H87.9111V38.1704H88.7127V42.7661ZM87.9111 37.0214C87.9111 36.8938 87.9111 36.7661 88.0447 36.6385C88.1783 36.5108 88.3119 36.5108 88.4455 36.5108C88.5791 36.5108 88.7127 36.5108 88.8463 36.6385C88.9799 36.7661 88.9799 36.8938 88.9799 37.0214C88.9799 37.1491 88.9799 37.2768 88.8463 37.2768C88.7127 37.4044 88.5791 37.4044 88.4455 37.4044C88.3119 37.4044 88.1783 37.4044 88.0447 37.2768C87.9111 37.1491 87.9111 37.1491 87.9111 37.0214ZM89.9151 40.4682C89.9151 39.9576 90.0487 39.5746 90.1823 39.3193C90.3159 38.9363 90.5831 38.681 90.984 38.5534C91.2512 38.298 91.652 38.298 92.0528 38.298C92.7208 38.298 93.2552 38.5534 93.656 38.9363C94.0568 39.3193 94.324 39.9576 94.324 40.5959C94.324 40.9789 94.1904 41.4895 94.0568 41.7448C93.9232 42.1278 93.656 42.3831 93.2552 42.5108C92.988 42.7661 92.5872 42.7661 92.0528 42.7661C91.3848 42.7661 90.8504 42.5108 90.4495 42.1278C90.0487 41.7449 89.9151 41.2342 89.9151 40.4682ZM90.7167 40.4682C90.7167 40.9789 90.8504 41.3619 91.1176 41.7448C91.3848 42.0002 91.652 42.2555 92.0528 42.2555C92.4536 42.2555 92.8544 42.1278 92.988 41.7448C93.2552 41.4895 93.3888 40.9789 93.3888 40.4682C93.3888 39.9576 93.2552 39.5746 92.988 39.1917C92.7208 38.9363 92.4536 38.681 92.0528 38.681C91.652 38.681 91.3848 38.8087 91.1176 39.1917C90.8504 39.447 90.7167 39.9576 90.7167 40.4682ZM96.0609 38.1704V38.681C96.4617 38.298 96.8625 38.0427 97.5305 38.0427C98.5993 38.0427 99.0001 38.5534 99.0001 39.7023V42.7661H98.1985V39.7023C98.1985 39.3193 98.0649 39.1917 97.9313 38.9363C97.7977 38.8087 97.5305 38.681 97.2633 38.681C96.9961 38.681 96.7289 38.8087 96.5953 38.9363C96.4617 39.064 96.1945 39.1917 96.0609 39.447V42.6385H95.2593V38.0427H96.0609V38.1704ZM53.5751 31.915V34.0853H54.9111C55.3119 34.0853 55.5791 33.9576 55.8464 33.8299C56.1136 33.5746 56.2472 33.3193 56.2472 33.064C56.2472 32.298 55.8464 31.915 55.0447 31.915H53.5751ZM53.5751 31.2767H54.9111C55.3119 31.2767 55.5791 31.1491 55.8464 31.0214C56.1136 30.8938 56.1136 30.6384 56.1136 30.2555C56.1136 29.8725 55.98 29.6172 55.8464 29.4895C55.5791 29.3618 55.3119 29.2342 54.9111 29.2342H53.7087V31.2767H53.5751ZM61.1905 34.3406C60.9233 34.7236 60.3889 34.8512 59.8544 34.8512C59.32 34.8512 58.9192 34.7236 58.652 34.4682C58.3848 34.2129 58.2512 33.7023 58.2512 33.1916V30.2555H59.0528V33.1916C59.0528 33.8299 59.32 34.2129 59.988 34.2129C60.6561 34.2129 61.0569 33.9576 61.1905 33.5746V30.2555H61.9921V34.8512H61.1905V34.3406ZM66.1338 33.5746C66.1338 33.3193 66.0002 33.1916 65.8666 33.064C65.733 32.9363 65.4658 32.8087 64.9314 32.8087C64.5306 32.681 64.1297 32.681 63.9961 32.5533C63.7289 32.4257 63.5953 32.298 63.4617 32.1704C63.3281 32.0427 63.3281 31.7874 63.3281 31.5321C63.3281 31.1491 63.4617 30.8938 63.8625 30.6384C64.1297 30.3831 64.6642 30.2555 65.1986 30.2555C65.733 30.2555 66.1338 30.3831 66.5346 30.6384C66.9354 30.8938 67.069 31.2767 67.069 31.6597H66.2674C66.2674 31.4044 66.1338 31.2767 66.0002 31.1491C65.8666 31.0214 65.5994 30.8938 65.3322 30.8938C65.065 30.8938 64.7978 30.8938 64.6642 31.0214C64.5305 31.1491 64.3969 31.2767 64.3969 31.5321C64.3969 31.6597 64.5305 31.915 64.6642 31.915C64.7978 32.0427 65.065 32.0427 65.4658 32.1704C65.8666 32.298 66.2674 32.4257 66.401 32.4257C66.6682 32.5533 66.8018 32.681 66.9354 32.8087C67.069 32.9363 67.069 33.1916 67.069 33.447C67.069 33.8299 66.9354 34.2129 66.5346 34.4682C66.1338 34.7236 65.733 34.8512 65.1986 34.8512C64.7978 34.8512 64.5306 34.7236 64.1297 34.5959C63.8625 34.4682 63.5953 34.3406 63.4617 34.0853C63.3281 33.8299 63.1945 33.5746 63.1945 33.3193H63.9961C63.9961 33.5746 64.1297 33.8299 64.2633 33.9576C64.5306 34.0853 64.7978 34.2129 65.065 34.2129C65.3322 34.2129 65.5994 34.2129 65.8666 34.0853C66.0002 33.9576 66.1338 33.8299 66.1338 33.5746ZM68.8059 34.8512H68.0042V30.2555H68.8059V34.8512ZM68.0042 29.1065C68.0042 28.9789 68.0042 28.8512 68.1378 28.7235C68.2714 28.5959 68.405 28.5959 68.5386 28.5959C68.6722 28.5959 68.8059 28.5959 68.9395 28.7235C69.0731 28.8512 69.0731 28.9789 69.0731 29.1065C69.0731 29.2342 69.0731 29.3618 68.9395 29.3618C68.6723 29.4895 68.5386 29.4895 68.405 29.4895C68.2714 29.4895 68.1378 29.4895 68.0042 29.3618C68.0042 29.2342 68.0042 29.2342 68.0042 29.1065ZM70.9435 30.2555V30.7661C71.3443 30.3831 71.7451 30.1278 72.4131 30.1278C73.482 30.1278 73.8828 30.6384 73.8828 31.7874V34.8512H73.0811V31.7874C73.0811 31.4044 72.9475 31.2767 72.8139 31.0214C72.6803 30.8938 72.4131 30.7661 72.1459 30.7661C71.8787 30.7661 71.6115 30.8938 71.4779 31.0214C71.3443 31.1491 71.0771 31.2767 70.9435 31.5321V34.8512H70.1419V30.2555H70.9435ZM77.0892 34.9789C76.4212 34.9789 75.8868 34.7236 75.486 34.3406C75.0852 33.9576 74.818 33.447 74.818 32.681V32.5533C74.818 32.0427 74.9516 31.6597 75.0852 31.2767C75.2188 30.8938 75.486 30.6384 75.8868 30.3831C76.154 30.1278 76.5548 30.1278 76.9556 30.1278C77.6237 30.1278 78.0245 30.3831 78.4253 30.7661C78.8261 31.1491 78.9597 31.6597 78.9597 32.4257V32.8087H75.7532C75.7532 33.3193 75.8868 33.5746 76.154 33.9576C76.4212 34.2129 76.6884 34.3406 77.2228 34.3406C77.49 34.3406 77.7573 34.3406 77.8909 34.2129C78.1581 34.0853 78.2917 33.9576 78.4253 33.8299L78.9597 34.2129C78.5589 34.5959 77.8909 34.9789 77.0892 34.9789ZM77.0892 30.7661C76.822 30.7661 76.4212 30.8938 76.2876 31.1491C76.0204 31.4044 75.8868 31.6597 75.8868 32.1704H78.2917C78.2917 31.7874 78.1581 31.4044 77.8909 31.2767C77.6236 30.8938 77.3564 30.7661 77.0892 30.7661ZM82.7006 33.5746C82.7006 33.3193 82.567 33.1916 82.4334 33.064C82.2998 32.9363 82.0326 32.8087 81.4981 32.8087C81.0973 32.681 80.6965 32.681 80.5629 32.5533C80.2957 32.4257 80.1621 32.298 80.0285 32.1704C79.8949 32.0427 79.8949 31.7874 79.8949 31.5321C79.8949 31.1491 80.0285 30.8938 80.4293 30.6384C80.6965 30.3831 81.2309 30.2555 81.7653 30.2555C82.2998 30.2555 82.7006 30.3831 83.1014 30.6384C83.5022 30.8938 83.6358 31.2767 83.6358 31.6597H82.8342C82.8342 31.4044 82.7006 31.2767 82.567 31.1491C82.4334 31.0214 82.1662 30.8938 81.8989 30.8938C81.6317 30.8938 81.3645 30.8938 81.2309 31.0214C81.0973 31.1491 80.9637 31.2767 80.9637 31.5321C80.9637 31.6597 81.0973 31.915 81.2309 31.915C81.3645 32.0427 81.6317 32.0427 82.0325 32.1704C82.4334 32.298 82.8342 32.4257 82.9678 32.4257C83.235 32.5533 83.3686 32.681 83.5022 32.8087C83.6358 32.9363 83.6358 33.1916 83.6358 33.447C83.6358 33.8299 83.5022 34.2129 83.1014 34.4682C82.7006 34.7236 82.2998 34.8512 81.7653 34.8512C81.3645 34.8512 81.0973 34.7236 80.6965 34.5959C80.4293 34.4682 80.1621 34.3406 80.0285 34.0853C79.8949 33.8299 79.7613 33.5746 79.7613 33.3193H80.5629C80.5629 33.5746 80.6965 33.8299 80.8301 33.9576C81.0973 34.0853 81.3645 34.2129 81.6317 34.2129C81.899 34.2129 82.1662 34.2129 82.4334 34.0853C82.7006 33.9576 82.7006 33.8299 82.7006 33.5746ZM87.3767 33.5746C87.3767 33.3193 87.2431 33.1916 87.1095 33.064C86.9759 32.9363 86.7087 32.8087 86.1743 32.8087C85.7734 32.681 85.3726 32.681 85.239 32.5533C84.9718 32.4257 84.8382 32.298 84.7046 32.1704C84.571 32.0427 84.571 31.7874 84.571 31.5321C84.571 31.1491 84.7046 30.8938 85.1054 30.6384C85.3726 30.3831 85.907 30.2555 86.4415 30.2555C86.9759 30.2555 87.3767 30.3831 87.7775 30.6384C88.1783 30.8938 88.3119 31.2767 88.3119 31.6597H87.5103C87.5103 31.4044 87.3767 31.2767 87.2431 31.1491C87.1095 31.0214 86.8423 30.8938 86.5751 30.8938C86.3078 30.8938 86.0406 30.8938 85.907 31.0214C85.7734 31.1491 85.6398 31.2767 85.6398 31.5321C85.6398 31.6597 85.7734 31.915 85.907 31.915C86.0406 32.0427 86.3078 32.0427 86.7087 32.1704C87.1095 32.298 87.5103 32.4257 87.6439 32.4257C87.9111 32.5533 88.0447 32.681 88.1783 32.8087C88.3119 32.9363 88.3119 33.1916 88.3119 33.447C88.3119 33.8299 88.1783 34.2129 87.7775 34.4682C87.3767 34.7236 86.9759 34.8512 86.4415 34.8512C86.0406 34.8512 85.7734 34.7236 85.3726 34.5959C85.1054 34.4682 84.8382 34.3406 84.7046 34.0853C84.571 33.8299 84.4374 33.5746 84.4374 33.3193H85.239C85.239 33.5746 85.3726 33.8299 85.5062 33.9576C85.7734 34.0853 86.0406 34.2129 86.3079 34.2129C86.5751 34.2129 86.8423 34.2129 87.1095 34.0853C87.3767 33.9576 87.3767 33.8299 87.3767 33.5746Z"
                fill="white"
              />
            </svg>