<svg xmlns="http://www.w3.org/2000/svg" width="208" height="229" viewBox="0 0 208 229" fill="none" class="kit-big-svg">
              <path fill-rule="evenodd" clip-rule="evenodd" d="M104.314 0L132.132 15.2261H104.314H76.4967L104.314 0ZM58.7946 25.5799L103.682 50.5507L148.569 25.5799L203.572 55.423L104.314 110.846L5.05615 55.423L58.7946 25.5799Z" fill="#004677"></path>
              <path fill-rule="evenodd" clip-rule="evenodd" d="M208 173.578L180.183 188.804L194.092 165.66L208 142.516V173.578ZM207.368 123.027L162.481 147.998V197.939L108.742 228.392V118.155L208 62.7316L207.368 123.027Z" fill="#69B3E7"></path>
              <path fill-rule="evenodd" clip-rule="evenodd" d="M0 173.577V142.516L13.9088 165.659L27.8176 188.803L0 173.577ZM45.5197 198.548V148.606L0.63222 123.635V63.34L99.8903 118.763V229L45.5197 198.548Z" fill="#147BD1"></path>
            </svg>